<?xml version="1.0" standalone="no"?><!DOCTYPE svg PUBLIC "-//W3C//DTD SVG 1.1//EN" "http://www.w3.org/Graphics/SVG/1.1/DTD/svg11.dtd"><svg t="1500307809957" class="icon" style="" viewBox="0 0 1024 1024" version="1.1" xmlns="http://www.w3.org/2000/svg" p-id="2347" xmlns:xlink="http://www.w3.org/1999/xlink" width="200" height="200"><defs><style type="text/css"></style></defs><path d="M961.99 137.004 62 137.004c-27.61 0-50 22.39-50 50l0 50c0 27.62 22.39 49.999 50 49.999L961.99 287.003c27.62 0 50.01-22.38 50.01-49.999l0-50C1012 159.394 989.61 137.004 961.99 137.004zM961.99 437.001 62 437.001c-27.61 0-50 22.39-50 49.999L12 537c0 27.62 22.39 50 50 50L961.99 587c27.62 0 50.01-22.38 50.01-50L1012 487C1012 459.391 989.61 437.001 961.99 437.001zM961.99 736.998 62 736.998c-27.61 0-50 22.39-50 50l0 50c0 27.62 22.39 50 50 50L961.99 886.998c27.62 0 50.01-22.38 50.01-50l0-50C1012 759.388 989.61 736.998 961.99 736.998z" p-id="2348" fill="#00AA99"></path></svg>