<?xml version="1.0" standalone="no"?><!DOCTYPE svg PUBLIC "-//W3C//DTD SVG 1.1//EN" "http://www.w3.org/Graphics/SVG/1.1/DTD/svg11.dtd"><svg t="1500127535187" class="icon" style="" viewBox="0 0 1024 1024" version="1.1" xmlns="http://www.w3.org/2000/svg" p-id="14433" xmlns:xlink="http://www.w3.org/1999/xlink" width="200" height="200"><defs><style type="text/css"></style></defs><path d="M512 1024C229.229714 1024 0 794.770286 0 512S229.229714 0 512 0s512 229.229714 512 512S794.770286 1024 512 1024zM512 73.142857C269.641143 73.142857 73.142857 269.641143 73.142857 512s196.498286 438.857143 438.857143 438.857143 438.857143-196.461714 438.857143-438.857143S754.358857 73.142857 512 73.142857zM721.810286 580.498286l-200.155429 0c0 0 0 0 0 0-25.490286 0-46.189714-22.528-46.189714-50.285714L475.465143 251.355429c0-44.836571 73.142857-40.265143 73.142857 0l0 256 173.238857 0C776.009143 507.355429 778.24 580.498286 721.810286 580.498286z" p-id="14434"></path></svg>