<?xml version="1.0" standalone="no"?><!DOCTYPE svg PUBLIC "-//W3C//DTD SVG 1.1//EN" "http://www.w3.org/Graphics/SVG/1.1/DTD/svg11.dtd"><svg t="1500127612384" class="icon" style="" viewBox="0 0 1025 1024" version="1.1" xmlns="http://www.w3.org/2000/svg" p-id="16176" xmlns:xlink="http://www.w3.org/1999/xlink" width="200.1953125" height="200"><defs><style type="text/css"></style></defs><path d="M512.000049 877.714286C479.25643 877.714286 445.513191 882.834286 414.476239 877.714286L192.000049 1024C192.000049 1024 192.000049 797.42781 197.388239 781.458286 80.822906 698.197333 0.073191 580.047238 4.9e-05 438.857143-0.121856 191.439238 229.229763 0 512.000049 0 794.745953 0 1024.000049 191.439238 1024.000049 438.857143 1024.000049 686.299429 794.745953 877.714286 512.000049 877.714286L512.000049 877.714286ZM512.000049 48.761905C264.582144 48.761905 48.761953 226.791619 48.761953 438.857143 48.761953 568.978286 128.317001 686.372571 243.809572 755.809524L243.809572 926.47619 390.095287 828.952381C424.789382 836.33981 474.624049 832 512.000049 832 759.442334 832 975.238144 650.947048 975.238144 438.857143 975.238144 226.791619 759.442334 48.761905 512.000049 48.761905L512.000049 48.761905ZM768.000049 512C732.647668 512 704.000049 483.352381 704.000049 448 704.000049 412.647619 732.647668 384 768.000049 384 803.35243 384 832.000049 412.647619 832.000049 448 832.000049 483.352381 803.35243 512 768.000049 512L768.000049 512ZM512.000049 512C476.647668 512 448.000049 483.352381 448.000049 448 448.000049 412.647619 476.647668 384 512.000049 384 547.328049 384 576.000049 412.647619 576.000049 448 576.000049 483.352381 547.328049 512 512.000049 512L512.000049 512ZM256.000049 512C220.647668 512 192.000049 483.352381 192.000049 448 192.000049 412.647619 220.647668 384 256.000049 384 291.35243 384 320.000049 412.647619 320.000049 448 320.000049 483.352381 291.35243 512 256.000049 512L256.000049 512Z" p-id="16177"></path></svg>