<?xml version="1.0" standalone="no"?><!DOCTYPE svg PUBLIC "-//W3C//DTD SVG 1.1//EN" "http://www.w3.org/Graphics/SVG/1.1/DTD/svg11.dtd"><svg t="1500127401833" class="icon" style="" viewBox="0 0 1024 1024" version="1.1" xmlns="http://www.w3.org/2000/svg" p-id="12435" xmlns:xlink="http://www.w3.org/1999/xlink" width="200" height="200"><defs><style type="text/css"></style></defs><path d="M896 544q-76-118-190.5-176.5 30.5 52 30.5 112.5 0 92.5-65.75 158.25t-158.25 65.75-158.25-65.75-65.75-158.25q0-60.5 30.5-112.5-114.5 58.5-190.5 176.5 66.5 102.5 166.75 163.25t217.25 60.75 217.25-60.75 166.75-163.25zm-360-192q0-10-7-17t-17-7q-62.5 0-107.25 44.75t-44.75 107.25q0 10 7 17t17 7 17-7 7-17q0-43 30.5-73.5t73.5-30.5q10 0 17-7t7-17zm424 192q0 17-10 34.5-70 115-188.25 184.25t-249.75 69.25-249.75-69.5-188.25-184q-10-17.5-10-34.5t10-34.5q70-114.5 188.25-184t249.75-69.5 249.75 69.5 188.25 184q10 17.5 10 34.5z" p-id="12436"></path></svg>