<?xml version="1.0" standalone="no"?><!DOCTYPE svg PUBLIC "-//W3C//DTD SVG 1.1//EN" "http://www.w3.org/Graphics/SVG/1.1/DTD/svg11.dtd"><svg t="1500102270295" class="icon" style="" viewBox="0 0 1024 1024" version="1.1" xmlns="http://www.w3.org/2000/svg" p-id="4500" xmlns:xlink="http://www.w3.org/1999/xlink" width="200" height="200"><defs><style type="text/css"></style></defs><path d="M231.906954 954.876478a24.575296 24.575296 0 0 1-24.341849-27.960261l39.91105-286.861951L45.333547 427.9298a24.573248 24.573248 0 0 1 13.542931-41.156095l284.33705-49.883693 139.747036-257.036172a24.572224 24.572224 0 0 1 21.506712-12.835426h0.08191a24.573248 24.573248 0 0 1 21.509783 12.692082L670.865023 341.857904l281.573584 44.85232a24.573248 24.573248 0 0 1 13.614603 41.539028L759.184347 637.611276l42.312061 281.246964a24.576319 24.576319 0 0 1-9.513942 23.282128 24.577343 24.577343 0 0 1-25.00328 2.721487L504.867615 825.038604l-262.227271 127.367239a24.538436 24.538436 0 0 1-10.73339 2.470635zM112.575168 427.250964l178.664917 187.487737a24.5712 24.5712 0 0 1 6.548771 20.338458L262.588702 888.081271l231.225047-112.308957a24.570176 24.570176 0 0 1 20.952789-0.244709l231.37863 105.773497-37.393316-248.549186a24.575296 24.575296 0 0 1 6.8201-20.926168l181.908586-184.101749-246.191178-39.21788a24.568128 24.568128 0 0 1-17.643592-12.38594L504.721199 142.723471 380.727663 370.782664a24.572224 24.572224 0 0 1-17.34257 12.465804l-250.809925 44.002496z" fill="#00AA99" p-id="4501"></path></svg>