<?xml version="1.0" standalone="no"?><!DOCTYPE svg PUBLIC "-//W3C//DTD SVG 1.1//EN" "http://www.w3.org/Graphics/SVG/1.1/DTD/svg11.dtd"><svg t="1500127699746" class="icon" style="" viewBox="0 0 1024 1024" version="1.1" xmlns="http://www.w3.org/2000/svg" p-id="17391" xmlns:xlink="http://www.w3.org/1999/xlink" width="200" height="200"><defs><style type="text/css"></style></defs><path d="M798.007795 784.039972c0 25.275107-20.568002 45.740781-45.740782 45.740781h-572.015589L260.374538 452.291396c0-25.275107 20.363346-45.740781 45.638453-45.740781h526.274808c25.275107 0 45.740781 20.465674 45.740781 45.740781l-80.020785 331.748576M271.732987 372.168282h514.81403v-44.922154c0-25.275107-20.568002-45.740781-45.740781-45.740782H466.259219v-41.44299c0-25.275107-20.465674-45.740781-45.740782-45.740781H191.712201c-25.275107 0-45.740781 20.465674-45.740781 45.740781v543.977616l80.020785-366.02858c0-25.377436 20.465674-45.84311 45.740782-45.84311m0 0z" fill="" p-id="17392"></path></svg>