<?xml version="1.0" standalone="no"?><!DOCTYPE svg PUBLIC "-//W3C//DTD SVG 1.1//EN" "http://www.w3.org/Graphics/SVG/1.1/DTD/svg11.dtd"><svg t="1500222716208" class="icon" style="" viewBox="0 0 1024 1024" version="1.1" xmlns="http://www.w3.org/2000/svg" p-id="2375" xmlns:xlink="http://www.w3.org/1999/xlink" width="200" height="200"><defs><style type="text/css"></style></defs><path d="M957.1 863.9c0-17.9-7-34.7-19.7-47.4L632.8 511.8l304.4-304.4c12.7-12.4 19.8-29.1 19.9-46.9 0.1-18-6.9-35-19.7-47.8l-28.8-28.8c-12.4-12.7-29.1-19.8-46.9-19.9-18.2 0-35 6.9-47.8 19.7L509.2 388.3 210.4 89.8c-12.5-12.8-29.1-19.8-47-19.9h-0.4c-17.9 0-34.7 7-47.4 19.7l-28.8 28.8c-12.7 12.4-19.8 29.1-19.9 46.9-0.1 18 6.9 35 19.7 47.8l299.1 299.1L86.8 811.1C74.1 823.5 67 840.2 66.9 858c-0.1 18 6.9 35 19.7 47.8l28.8 28.8c12.4 12.7 29.1 19.8 46.9 19.9h0.4c17.9 0 34.7-7 47.4-19.7l299.1-299.1 304.4 304.4c12.4 12.7 29.1 19.8 46.9 19.9h0.4c17.9 0 34.7-7 47.4-19.7l29-29c12.8-12.7 19.8-29.5 19.8-47.4z" p-id="2376" fill="#00AA99"></path></svg>