<?xml version="1.0" standalone="no"?><!DOCTYPE svg PUBLIC "-//W3C//DTD SVG 1.1//EN" "http://www.w3.org/Graphics/SVG/1.1/DTD/svg11.dtd"><svg t="1501102897796" class="icon" style="" viewBox="0 0 1024 1024" version="1.1" xmlns="http://www.w3.org/2000/svg" p-id="7783" xmlns:xlink="http://www.w3.org/1999/xlink" width="200" height="200"><defs><style type="text/css"></style></defs><path d="M904.4864 126.72 127.03488 126.72c-21.4656 0-38.87104 17.40544-38.87104 38.8736l0 544.35072c0 21.48608 17.40544 38.89152 38.87104 38.89152l77.8624 0 0 155.5456 266.3936-155.5456 433.19808 0c21.4656 0 38.8736-17.408 38.8736-38.89152L943.36256 165.5936C943.36 144.12544 925.952 126.72 904.4864 126.72zM321.40032 450.64704c0 14.28992-11.59936 25.88928-25.91488 25.88928L230.68672 476.53632c-14.3104 0-25.90976-11.59936-25.90976-25.88928l0-64.72448c0-14.31552 11.59936-25.90976 25.90976-25.90976l64.80128 0c14.31296 0 25.91488 11.59424 25.91488 25.90976L321.40288 450.64704zM574.07232 450.64704c0 14.28992-11.59936 25.88928-25.9072 25.88928l-64.8064 0c-14.30784 0-25.90976-11.59936-25.90976-25.88928l0-64.72448c0-14.31552 11.59936-25.90976 25.90976-25.90976l64.8064 0c14.30784 0 25.9072 11.59424 25.9072 25.90976L574.07232 450.64704zM826.74176 450.64704c0 14.28992-11.5968 25.88928-25.9072 25.88928l-64.80128 0c-14.31552 0-25.9072-11.59936-25.9072-25.88928l0-64.72448c0-14.31552 11.59168-25.90976 25.9072-25.90976l64.80128 0c14.3104 0 25.9072 11.59424 25.9072 25.90976L826.74176 450.64704z" p-id="7784" fill="#00C7FC"></path></svg>