<?xml version="1.0" standalone="no"?><!DOCTYPE svg PUBLIC "-//W3C//DTD SVG 1.1//EN" "http://www.w3.org/Graphics/SVG/1.1/DTD/svg11.dtd"><svg t="1501102756143" class="icon" style="" viewBox="0 0 1024 1024" version="1.1" xmlns="http://www.w3.org/2000/svg" p-id="6475" xmlns:xlink="http://www.w3.org/1999/xlink" width="200" height="200"><defs><style type="text/css"></style></defs><path d="M197.632 402.944h175.104v175.104H197.632V402.944zM432.64 402.944h175.104v175.104H432.64V402.944zM662.016 402.944h175.104v175.104h-175.104V402.944zM197.632 663.04h175.104v175.104H197.632v-175.104zM432.64 663.04h175.104v175.104H432.64v-175.104z" p-id="6476" fill="#00C7FC"></path><path d="M894.464 114.688h-135.168v53.76c0 40.448-48.128 83.456-88.576 83.456h-4.096c-40.448 0-88.576-43.008-88.576-83.456V114.688H447.488v53.76c0 40.448-48.128 83.456-88.576 83.456h-4.096c-40.448 0-89.088-43.008-89.088-83.456V114.688H135.168c-59.392 0-102.4 37.888-102.4 97.28v712.704c0 59.392 22.528 97.28 81.92 97.28h800.256c59.392 0 81.92-37.888 81.92-97.28V211.968c0-59.392-43.008-97.28-102.4-97.28z m1.536 786.944c0 10.24-8.192 18.432-18.432 18.432H152.576c-10.24 0-18.432-8.192-18.432-18.432V338.944c0-10.24 8.192-18.432 18.432-18.432h724.992c10.24 0 18.432 8.192 18.432 18.432v562.688z" p-id="6477" fill="#00C7FC"></path><path d="M354.816 221.696h3.072c30.208 0 54.784-24.576 54.784-54.784V54.784C413.184 24.576 388.096 0 357.888 0h-3.072c-30.208 0-54.784 24.576-54.784 54.784v112.128c0 30.208 24.576 54.784 54.784 54.784zM666.112 221.696h3.072c30.208 0 54.784-24.576 54.784-54.784V54.784c0-30.208-24.576-54.784-54.784-54.784h-3.072c-30.208 0-54.784 24.576-54.784 54.784v112.128c-0.512 30.208 24.064 54.784 54.784 54.784z" p-id="6478" fill="#00C7FC"></path></svg>