<?xml version="1.0" standalone="no"?><!DOCTYPE svg PUBLIC "-//W3C//DTD SVG 1.1//EN" "http://www.w3.org/Graphics/SVG/1.1/DTD/svg11.dtd"><svg t="1501253876204" class="icon" style="" viewBox="0 0 1024 1024" version="1.1" xmlns="http://www.w3.org/2000/svg" p-id="2347" xmlns:xlink="http://www.w3.org/1999/xlink" width="200" height="200"><defs><style type="text/css"></style></defs><path d="M1015.728876 938.402014 723.608871 644.357172c118.772021-156.877878 106.668362-381.292909-36.377494-524.335694-156.33655-156.337573-409.811415-156.337573-566.147965 0-156.337573 156.301757-156.337573 409.773553 0 566.115219 142.993667 142.992643 367.232689 155.168958 524.095217 36.587272l292.186519 294.075542c9.599631 9.600654 25.212206 9.600654 34.808766 0l43.55496-43.55496C1025.363299 963.609103 1025.363299 948.001645 1015.728876 938.402014L1015.728876 938.402014zM195.250562 614.133838c-114.808758-114.804665-114.808758-300.939876 0-415.712819 114.809782-114.807735 300.904061-114.807735 415.715889 0 114.807735 114.771919 114.807735 300.907131 0 415.712819C496.155646 728.942596 310.061367 728.942596 195.250562 614.133838L195.250562 614.133838z" p-id="2348" fill="#333333"></path></svg>