<?xml version="1.0" standalone="no"?><!DOCTYPE svg PUBLIC "-//W3C//DTD SVG 1.1//EN" "http://www.w3.org/Graphics/SVG/1.1/DTD/svg11.dtd"><svg t="1501102260866" class="icon" style="" viewBox="0 0 1024 1024" version="1.1" xmlns="http://www.w3.org/2000/svg" p-id="3036" xmlns:xlink="http://www.w3.org/1999/xlink" width="200" height="200"><defs><style type="text/css"></style></defs><path d="M80.772 217.372c16.262-3.748 33.133-1.774 49.699-2.177 263.236 0.05 526.52 0.15 789.804-0.052 9.475 0.658 21.174-0.556 28.22 7.246 7.747 9.118 6.99 22.087 7.55 33.283-0.258 172.45 0 344.848-0.154 517.25 1.014 14.285-4.002 32.22-20.823 33.79-281.931 0.204-564.109-0.405-846.089 0.305-12.563-0.506-23.153-10.892-22.492-23.76 0.15-84.553 1.47-169.259-0.962-253.812 0.1-93.013 0-186.029 0.049-279.04 0.354-12.059 1.773-28.524 15.198-33.033z m56.539 34.553A165094.308 165094.308 0 0 1 471.114 598.9c10.44 11.045 22.343 23.304 38.857 23.001 18.186 1.063 30.901-12.97 42.3-24.925 110.544-115.103 221.137-230.153 331.933-345.002-248.946 0-497.947 0.049-746.893-0.05z m-34.906 15.804c-0.101 147.98-0.203 295.961 0.049 443.944-0.505 11.196 1.522 23.301-4.051 33.588 4.965 0.251 8.662-3.093 11.905-6.487 73.812-77.51 148.589-154.16 222.35-231.722A48910.486 48910.486 0 0 1 102.405 267.73z m586.452 239.323c76.497 80.044 153.448 159.733 230.252 239.524 0.152-159.582 0.152-319.214 0-478.796-76.547 79.943-153.146 159.887-230.252 239.272z m-558.082 262.78c253.403 0.252 506.862 0.353 760.271-0.102-76.04-78.525-151.225-157.913-227.776-236.032-30.496 32.524-61.803 64.29-92.505 96.663-14.536 15.603-33.89 28.017-55.877 28.471-23.713 1.774-46.56-9.32-62.316-26.649-31.357-32.878-63.223-65.351-94.277-98.534-76.348 78.22-151.884 157.253-227.52 236.182z" p-id="3037" fill="#FFF"></path></svg>