<?xml version="1.0" standalone="no"?><!DOCTYPE svg PUBLIC "-//W3C//DTD SVG 1.1//EN" "http://www.w3.org/Graphics/SVG/1.1/DTD/svg11.dtd"><svg t="1501102210796" class="icon" style="" viewBox="0 0 1024 1024" version="1.1" xmlns="http://www.w3.org/2000/svg" p-id="2368" xmlns:xlink="http://www.w3.org/1999/xlink" width="200" height="200"><defs><style type="text/css"></style></defs><path d="M951.560666 554.72201c-16.95823-22.544459-37.331233-39.400359-59.781548-49.850361-1.323135-99.519598-40.671305-192.886055-111.190405-263.405155-71.741951-71.742974-167.129438-111.25385-268.589225-111.25385-101.459786 0-196.84625 39.510876-268.589225 111.25385-70.518077 70.5191-109.866247 163.885558-111.189382 263.405155-22.449291 10.450003-42.822294 27.306926-59.781548 49.850361-28.095895 37.347606-43.569308 86.501096-43.569308 138.396023 0 51.897997 15.473413 101.047394 43.569308 138.399093 30.206976 40.153512 71.245647 62.270229 115.554806 62.270229 36.44505 0 71.978335-15.717983 100.05581-44.257993 6.072299-6.17156 9.474792-14.481829 9.474792-23.137976L297.524742 559.848775c0-8.659217-3.403516-16.969487-9.475815-23.14207-25.340131-25.75457-56.752562-41.062208-89.426729-43.803645 8.936533-165.111478 146.07389-296.699446 313.376267-296.699446 167.301354 0 304.439734 131.587967 313.376267 296.699446-32.673144 2.741437-64.085574 18.049075-89.427752 43.803645-6.072299 6.172583-9.474792 14.482853-9.474792 23.14207l0 266.542612c0 8.656147 3.402493 16.966417 9.474792 23.137976 28.077475 28.54001 63.611783 44.257993 100.054787 44.257993 44.311205 0 85.349877-22.115694 115.556852-62.270229 28.094872-37.3517 43.568285-86.501096 43.568285-138.399093C995.128951 641.223107 979.655538 592.069617 951.560666 554.72201z" p-id="2369" fill="#EDF2F6"></path></svg>