<?xml version="1.0" standalone="no"?><!DOCTYPE svg PUBLIC "-//W3C//DTD SVG 1.1//EN" "http://www.w3.org/Graphics/SVG/1.1/DTD/svg11.dtd"><svg t="1501265926673" class="icon" style="" viewBox="0 0 1024 1024" version="1.1" xmlns="http://www.w3.org/2000/svg" p-id="2367" xmlns:xlink="http://www.w3.org/1999/xlink" width="200" height="200"><defs><style type="text/css"></style></defs><path d="M966.014 103.468h-905.325c-32.891 0-59.561 26.668-59.561 59.561v23.824c0 32.891 26.668 59.561 59.561 59.561h905.319c32.891 0 59.561-26.668 59.561-59.561v-23.824c0.005-32.891-26.657-59.561-59.545-59.561zM966.014 436.999h-905.325c-32.891 0-59.561 26.668-59.561 59.561v23.824c0 32.891 26.668 59.561 59.561 59.561h905.319c32.891 0 59.561-26.668 59.561-59.561v-23.824c0.005-32.891-26.657-59.561-59.545-59.561zM966.014 770.552h-905.325c-32.891 0-59.561 26.668-59.561 59.561v23.824c0 32.891 26.668 59.561 59.561 59.561h905.319c32.891 0 59.561-26.657 59.561-59.561v-23.824c0.005-32.9-26.657-59.561-59.545-59.561z" p-id="2368" fill="#31A7DE"></path></svg>